<svg xmlns="http://www.w3.org/2000/svg">
  <symbol id="brand" viewBox="0 0 220 170"><path fill="#DB2D32" d="M0 0h220v16.8L0 86.9V0z"/><path fill="#0C1638" d="M0 170l220-70.9v-.8L0 161.6v8.4zm0-86.1v1.5l220-60.2V14.6L0 83.9z"/><path fill="#2A4089" d="M0 161.5L220 99v-.8l-220 55v8.3zm0-76.9l220-54.1v-8.4L0 84.6z"/><path fill="#FFF" d="M0 153.3V84.7l220-54.9v68.6L0 153.3zM60.4 31.7c.2.7-.8 1.5-.8 2.3.1.7 1.2 1.4 1.2 2.1 0 .7-1.1 1.4-1.2 2.1-.1.7.9 1.6.8 2.3s-1.4 1.1-1.6 1.8c-.3.7.5 1.7.2 2.4s-1.6.8-2 1.5c-.4.7.2 1.9-.2 2.5-.5.6-1.7.5-2.3 1.1-.5.6-.2 1.9-.7 2.4-.5.5-1.8.2-2.4.6-.6.5-.5 1.8-1.1 2.1s-1.7-.2-2.4.1c-.6.3-.8 1.6-1.5 1.9-.7.2-1.7-.5-2.4-.4-.7.2-1.1 1.4-1.8 1.6-.7.2-1.5-.9-2.3-.8-.7.1-1.4 1.2-2.1 1.2-.7 0-1.4-1.1-2-1.2-.7-.1-1.6.9-2.3.8-.7-.2-1.1-1.4-1.8-1.6-.7-.2-1.7.6-2.4.3s-.8-1.6-1.5-2c-.7-.4-1.9.2-2.5-.2-.6-.5-.5-1.8-1.1-2.3-.6-.5-1.9-.2-2.4-.8-.5-.5-.2-1.8-.6-2.4-.5-.6-1.7-.5-2.1-1.1s.2-1.8-.1-2.4c-.3-.6-1.6-.8-1.9-1.5-.2-.7.5-1.7.4-2.4-.2-.7-1.4-1.1-1.6-1.8-.2-.7.8-1.5.8-2.3-.1-.7-1.2-1.4-1.2-2.1 0-.7 1.1-1.4 1.2-2.1s-.9-1.6-.8-2.3c.2-.7 1.4-1.1 1.6-1.8s-.6-1.8-.3-2.4c.3-.7 1.6-.8 2-1.5s-.2-1.9.2-2.5c.5-.6 1.7-.5 2.3-1.1.5-.6.2-1.9.7-2.4.5-.5 1.8-.2 2.4-.6.6-.5.5-1.8 1.1-2.1.6-.4 1.7.2 2.4-.1.6-.3.8-1.6 1.5-1.9.7-.2 1.7.5 2.4.4.7-.2 1.1-1.4 1.8-1.6.7-.2 1.5.9 2.3.8.7-.1 1.4-1.2 2.1-1.2.7 0 1.4 1.1 2 1.2s1.6-.9 2.3-.8c.7.2 1.1 1.4 1.8 1.6.7.2 1.7-.6 2.4-.3s.8 1.6 1.5 2c.7.4 1.9-.2 2.5.2.6.5.5 1.8 1.1 2.3.6.5 1.9.2 2.4.8.5.5.2 1.8.6 2.4.5.6 1.7.5 2.1 1.1.4.6-.2 1.8.1 2.4.3.6 1.6.8 1.9 1.5.2.7-.5 1.7-.4 2.4.3.7 1.6 1.1 1.7 1.8zm-6.8 7.7c.2 0 .4-.1.5-.2 0 .1 0 .1.1.1-.2.1-.5.2-.5.3-.1.2-.1.4.1.5.2.1.4.1.5-.1.1-.1.2-.4.2-.6h.2v.6c.1.2.3.2.5.2.2-.1.2-.3.2-.5-.1-.2-.3-.3-.5-.4v-.2c.2.1.4.3.5.3s.3-.1.4-.3c0-.2-.2-.3-.3-.4-.2 0-.4.1-.5.2 0-.1 0-.1-.1-.1.2-.1.5-.2.5-.3.1-.2.1-.4-.1-.5-.2-.1-.4-.1-.5.1-.1.1-.2.4-.2.6h-.2v-.6c-.2-.1-.4-.2-.5-.1s-.2.3-.2.5c.1.2.3.3.5.4v.1c-.2-.1-.4-.3-.5-.3s-.3.1-.4.3c0 .2.1.3.3.4zm-2.1 5.5c.2 0 .4-.1.5-.2 0 .1 0 .1.1.1-.2.1-.5.2-.5.3-.1.2-.1.4.1.5s.4.1.5-.1c.1-.1.2-.4.2-.6h.2v.6c.1.2.3.2.5.2.2-.1.2-.3.2-.5-.1-.2-.3-.3-.5-.4v-.2c.2.1.4.3.5.3s.3-.1.4-.3c0-.2-.2-.3-.3-.4-.2 0-.4.1-.5.2 0-.1 0-.1-.1-.1.2-.1.5-.2.5-.3.1-.2.1-.4-.1-.5s-.4-.1-.5.1c-.1.1-.2.4-.2.6h-.2v-.6c-.1-.2-.3-.2-.5-.2s-.2.3-.2.5c.1.2.3.3.5.4v.2c-.2-.1-.4-.3-.5-.3s-.3.1-.4.3c-.1.2.1.4.3.4zm-4.1-8.2c.1-.1.1-.1 0 0v-.2l-.7-.5h-.2l-6.1 6.6-.1.1v.1l.8.5h.2l6.1-6.6zm-10.2-4.2l-2.1 3c-.2.3-.4.6-.5 1-.1.3-.2.7-.1 1l.3.9c.2.3.4.5.8.8.3.2.6.4 1 .5.3.1.7.1 1 0 .3-.1.6-.2.9-.4.3-.2.5-.5.8-.8l2.1-3c.2-.3.4-.6.5-1 .1-.3.1-.7.1-1l-.3-.9c-.2-.3-.5-.5-.8-.8-.3-.2-.6-.4-1-.5-.3-.1-.7-.1-1 0s-.6.2-.9.4l-.8.8zm-.1-3c-.2-.3-.5-.5-.8-.8-.3-.2-.6-.4-1-.5-.3-.1-.7-.1-1 0-.3.1-.6.2-.9.4-.3.2-.5.5-.8.8l-2.1 3c-.2.3-.4.6-.5 1-.1.3-.2.7-.1 1l.3.9c.2.3.4.5.8.8.3.2.6.4 1 .5.3.1.7.1 1 0s.6-.2.9-.4c.3-.2.5-.5.8-.8l2.1-3c.2-.3.4-.6.5-1 .1-.3.1-.7.1-1 0-.3-.1-.6-.3-.9zm3.9 7.2c-.2.2-.2.4-.3.6-.1.2-.1.5 0 .6.1.2.2.4.2.6.2.2.3.4.5.5.2.2.4.2.6.3.2.1.5.1.6.1.2 0 .4-.1.6-.2.2-.1.4-.2.5-.5l1.3-1.8c.2-.2.2-.4.2-.5.1-.2.1-.4 0-.6 0-.2-.1-.4-.2-.6-.2-.2-.3-.4-.5-.5-.2-.2-.4-.2-.6-.3s-.5-.1-.6 0c-.2 0-.4.1-.6.2-.2.1-.3.2-.5.4L41 36.7zm6.6 12.6c.2 0 .4-.1.5-.2 0 .1 0 .1.1.1-.2.1-.5.2-.5.3-.1.2-.1.4.1.5.2.1.4.1.5-.1.1-.1.2-.4.2-.6h.2v.6c.1.2.3.2.5.2.2-.1.2-.3.2-.5-.1-.2-.3-.3-.5-.4V49c.2.1.4.3.5.3s.3-.1.4-.3c0-.2-.2-.3-.3-.4-.2 0-.4.1-.5.2 0-.1 0-.1-.1-.1.2-.1.5-.2.5-.3.1-.2.1-.4-.1-.5-.2-.1-.4-.1-.5.1-.1.2-.2.5-.2.7h-.2v-.6c-.1-.2-.3-.2-.5-.2-.2.1-.2.3-.2.5.1.2.3.3.5.4v.2c-.2-.1-.4-.3-.5-.3s-.3.1-.4.3c0 .1.1.3.3.3zm-2.5-4.5c.2-.1.4-.2.5-.5l1.3-1.8c.1-.1.1-.4.1-.5.1-.2.1-.4 0-.6 0-.2-.1-.4-.2-.6-.2-.2-.3-.4-.5-.5-.2-.2-.4-.2-.6-.3-.2-.1-.5-.1-.6 0-.2 0-.4.1-.6.2-.2.1-.3.2-.5.4l-1.3 1.8c-.2.2-.2.4-.3.6s-.1.5 0 .6c.1.2.2.4.2.6l.5.5c.2.2.4.2.6.3.2.1.5.1.6.1.4-.1.6-.2.8-.3zm-1.9 9.4l3.1-1.1-.3-1-1.8.6-.3-.7 1.5-.5-.3-.9-1.5.5-.2-.6 1.8-.6-.3-.9-3.1 1.1 1.4 4.1zm-6.3.6v-3.1l.8 3.1h.8l.8-3.1v3.1h1.2v-4.3h-1.7l-.6 2.3-.6-2.3H36v4.3h.9zM30.6 53c.2.3.6.6 1.1.8.5.2.9.2 1.3.1.4-.2.7-.5.8-.9l1-2.7-1-.4-.8 2.3c-.1.2-.2.4-.2.5l-.2.2h-.4c-.2-.1-.3-.2-.4-.3-.1-.2-.1-.3 0-.5l.9-2.7-1.3-.5-1 2.8c-.1.5-.1 1 .2 1.3zm-4-2.1l1-1.3 1.1.8.6-.8-1.1-.8.5-.6 1.5 1.1.6-.8-2.7-1.8-2.6 3.5 1.1.7zm-4.4-4.4l1.4-1 .2.3-1 1.5.9 1.2 1.1-1.8c.3.2.5.2.8.2.2 0 .5-.2.6-.3.3-.2.5-.5.5-.9s-.1-.8-.4-1.1L25 42.8l-3.5 2.6.7 1.1zm-1.9-3.2l1-.3-.6-1.8.7-.2.5 1.5.9-.3-.5-1.5.6-.2.6 1.8 1-.3-1.1-3.1-4.1 1.4 1 3zm-1.6-9.1l.1 1.4 1.6-.1v.8c0 .5.2.8.5 1.1.2.3.6.4 1 .4.3 0 .5-.1.8-.2.2-.2.4-.4.5-.6s.2-.6.2-1.1l-.1-1.8-4.6.1zm4.1-4.4c-.2 0-.4.1-.5.2 0-.1 0-.1-.1-.1.2-.1.5-.2.5-.3.1-.2.1-.4-.1-.5-.2-.1-.4-.1-.5.1-.1.1-.2.4-.2.5h-.2v-.6c-.1-.2-.3-.2-.5-.2-.2.1-.2.3-.2.5.1.2.3.3.5.4l-.1.1v.1c-.2-.1-.4-.3-.5-.3-.2 0-.3.1-.4.3 0 .2.1.3.3.4.2 0 .4-.1.5-.2 0 .1 0 .1.1.1-.2.1-.5.2-.5.3.1.1.1.3.3.4.2.1.4.1.5-.1.1-.1.2-.4.2-.6h.2v.6c.1.2.3.2.5.2.2-.1.2-.3.2-.5-.1-.2-.3-.3-.5-.4l.1-.1V30c.2.1.4.3.5.3.2 0 .3-.1.4-.3-.2-.1-.4-.2-.5-.2zm4.3 8.1c-.8.3-.3 1.2.5 2.1-.1-.1-.2-.1-.3-.2-1.9-1.3-2.7-1.3-2.8-.8-.2.9 1.5 1.2 3.2 1.3.5.2 1.1.5 1.6.8-1.2-.4-2.4-.6-2.4.4.1.5.7.7 2.4-.3.4.2.7.5 1.1.7-1.1-.3-2-.4-1.9.5.1.5.7.7 2.4-.2.5.3.9.6 1.4 1-1.5-.2-3-.2-2.7 1 .2.6.9.7 2.8-.9.5.3.8.6 1.3.9-1.7.2-3.3.5-3 1.6.2.6 1.1.5 3.1-1.5.4.3.8.5 1.2.8-1.6.5-3.2 1.1-2.6 2.2.3.5 1.1.3 2.7-2.1.5.3 1 .6 1.5.8-1.6.5-3.3 1.1-2.7 2.2.4.5 1.1.3 2.7-2.2 1.4.7 2.8 1.1 4.3 1.1.1 0 .2-.1.2-.2s-.1-.2-.2-.2c-2 0-3.9-.8-5.8-1.9 1.4-2.6 1.3-3.4.6-3.5-1.1-.1-1.1 1.7-.8 3.4-.5-.3-.9-.6-1.4-.9 1.4-2.6 1.3-3.4.7-3.5-1.2-.1-1.1 1.8-.8 3.4-.4-.3-.8-.5-1.2-.8.8-2.7.5-3.6-.1-3.5-1.1.2-.8 1.8-.2 3.4-.4-.3-.8-.6-1.2-.8.5-2.4.2-3-.5-3-1.1.2-.5 1.5.2 2.7-.4-.3-.8-.5-1.2-.8.1-2.1-.3-2.6-.8-2.4-.9.3-.2 1.3.6 2.2-.5-.2-.9-.5-1.4-.8.3-1.6-.1-2.1-.5-2zm-1.5-13.2c-.2 0-.4.1-.5.2 0-.1 0-.1-.1-.1.2-.1.5-.2.5-.3.1-.2.1-.4-.1-.5-.2-.1-.4-.1-.5.1-.1.1-.2.4-.2.6h-.2v-.6c-.1-.2-.3-.2-.5-.2-.2.1-.2.3-.2.5.1.2.3.3.5.4l-.1.1v.1c-.2-.1-.4-.3-.5-.3-.2 0-.3.1-.4.3 0 .2.1.3.3.4.2 0 .4-.1.5-.2 0 .1 0 .1.1.1-.2.1-.5.2-.5.3-.1.2-.1.4.1.5.2.1.4.1.5-.1.1-.1.2-.4.2-.6h.2v.6c.1.2.3.2.5.2.2-.1.2-.3.2-.5-.1-.2-.3-.3-.5-.4l.1-.1v-.1c.2.1.4.3.5.3.2 0 .3-.1.4-.3 0-.3-.1-.4-.3-.4zm4.6-3.8c-.2 0-.4.1-.5.2 0-.1 0-.1-.1-.1.2-.1.5-.2.5-.3.1-.2.1-.4-.1-.5-.2-.1-.4-.1-.5.1-.1.1-.2.4-.2.6h-.2v-.6c-.1-.2-.3-.2-.5-.2-.2.1-.2.3-.2.5.1.2.3.3.5.4l-.1.1v.1c-.2-.1-.4-.3-.5-.3-.2 0-.3.1-.4.3 0 .2.1.3.3.4.2 0 .4-.1.5-.2 0 .1 0 .1.1.1-.2.1-.5.2-.5.3-.1.2-.1.4.1.5.2.1.4.1.5-.1.1-.1.2-.4.2-.6h.2v.6c.1.2.3.2.5.2.2-.1.2-.3.2-.5s-.3-.3-.5-.4l.1-.1v-.1c.2.1.4.3.5.3.2 0 .3-.1.4-.3 0-.3-.2-.4-.3-.4zm1.5 4.5h-.2l-1.4 2.1v.1s0 .1.1.1.1.1.2.2v.2l-3.6 5V33v.1l1.8 1.3h.1s.1 0 .1-.1l5.1-7.2V27l-2.2-1.6zm2.4-8.4l-3 1 1.4 4.1 1.2-.4-.5-1.5 1.4-.5-.3-.9-1.4.5-.2-.7 1.7-.6-.3-1zm6.3 0c-.3-.2-.7-.4-1.1-.4l-2.3-.1-.2 4.3h1.4l.1-1.7h.5l.6 1.7 1.5.1-.8-1.9c.3-.2.5-.3.6-.5.1-.2.2-.4.2-.7-.1-.3-.2-.6-.5-.8zm.5 9.1c-.5-.3-1-.6-1.5-.8 1.6-.5 3.3-1.1 2.7-2.2-.4-.5-1.1-.3-2.7 2.2-1.4-.7-2.8-1.1-4.3-1.1-.1 0-.2.1-.2.2s.1.2.2.2c2 0 3.9.8 5.8 1.9-1.4 2.6-1.3 3.4-.6 3.5 1.1.1 1.1-1.7.8-3.4.5.3.9.6 1.4.9-1.4 2.6-1.3 3.4-.7 3.5 1.2.1 1.1-1.8.8-3.4.4.3.8.5 1.2.8-.8 2.7-.5 3.6.1 3.5 1.1-.2.8-1.8.2-3.4.4.3.8.6 1.2.8-.5 2.4-.2 3 .5 3 1.1-.2.5-1.5-.2-2.7.4.3.8.5 1.2.8-.1 2.1.3 2.6.8 2.4.8-.3.2-1.3-.6-2.2.5.2.9.5 1.4.8-.1 2 .3 2.4.8 2.2.8-.3.3-1.2-.5-2.1.1.1.2.1.3.2 1.9 1.3 2.7 1.3 2.8.8.3-.9-1.5-1.2-3.2-1.3-.5-.2-1.1-.5-1.6-.8 1.2.4 2.4.6 2.4-.4-.1-.5-.7-.7-2.4.3-.4-.2-.7-.5-1.1-.7 1.1.3 2 .4 1.9-.5-.1-.5-.7-.7-2.4.2-.5-.3-.9-.6-1.4-1 1.5.2 3 .2 2.7-1-.2-.6-.9-.7-2.8.9-.5-.3-.8-.6-1.3-.9 1.7-.2 3.3-.5 3-1.6-.2-.6-1.1-.5-3.1 1.5-.4-.3-.8-.5-1.2-.8 1.6-.5 3.2-1.1 2.6-2.2-.7-.8-1.4-.6-3 1.9zm2.9-8.7l-1.7 4 3 1.2.4-1-1.8-.8.3-.7 1.4.6.4-.9-1.4-.6.2-.6 1.8.8.4-.9-3-1.1zm7.6 4.5l-.8 1c-.2.3-.5.6-.7.9.1-.2.2-.5.2-.9l.3-1.8-.9-.8-3 3.2.8.8 1.4-1.5c.2-.2.3-.4.4-.6-.2.4-.2.7-.3 1l-.5 2.2.8.8 3-3.2-.7-1.1zm3.6 5c-.3-.5-.7-.9-1.2-1-.5-.2-1.1 0-1.7.3-.6.3-1 .7-1.2 1.2-.2.5-.2 1 .1 1.5.2.5.5.8.9.9.4.2.8.2 1.4 0l-.5-1.1c-.5.2-.8.1-.9-.2-.1-.2-.1-.4 0-.5.1-.2.4-.4.8-.6.8-.4 1.2-.4 1.4 0 .1.2.1.3 0 .5s-.2.3-.5.5l.6 1.1c.5-.3.8-.6.9-1.1.2-.5.1-1-.1-1.5zm-2.7 5l.2 1.3 1.7-.2.1 1-1.7.2.2 1.3 4.3-.5-.2-1.3-1.7.3-.1-1 1.6-.2-.2-1.3-4.2.4zM39.2 18.3c-.1.1-.2.1-.4.1h-.6v-.8h.6c.4 0 .5.2.5.5.1 0 0 .1-.1.2zM21.7 36.4c-.3 0-.5-.2-.5-.6v-.5h.8v.5c.1.5-.1.6-.3.6zm3.6 9.2c-.1.1-.2.1-.3.1-.2-.1-.2-.2-.3-.2l-.4-.5.7-.5.4.5c.2.2.1.4-.1.6zm18.8-2.5l1.1-1.6c0-.1.1-.1.2-.1h.2c.1 0 .1.1.1.2s0 .1-.1.2l-1.1 1.6c0 .1-.1.1-.2.1h-.2s-.1-.1-.1-.2c0 0 .1-.1.1-.2zm-.6-7.4h.2c.1 0 .1.1.1.2s0 .1-.1.2l-1.1 1.6c0 .1-.1.1-.2.1h-.2c-.1-.1-.1-.1-.1-.2s0-.2.1-.2l1.1-1.6c.1-.1.2-.1.2-.1zM35 31l-2 2.9-.2.1h-.2c-.1 0-.1-.1-.1-.2s0-.1.1-.2l2-2.9c.1-.1.1-.1.2-.1h.2c.1 0 .1.1.1.2-.1.1-.1.1-.1.2zm4.2 2.8h.2c.1 0 .1.1.1.2s0 .1-.1.2l-2 2.9c-.1.1-.1.1-.2.1H37c-.1 0-.1-.2-.1-.2 0-.1 0-.1.1-.2l2-2.9c.1 0 .2-.1.2-.1z"/><path fill="#0C1638" d="M123.5 106.9l-7.8 2.1c-1.3.4-2.5-.4-2.9-1.8-.4-1.4-.9-3.6-1.6-6.4-.3 2.8-.7 5.6-1 8.4-.2 1.1-.8 1.8-1.2 2l-.1.1c-.2.1-.3.2-1.1.4-1.4.4-2.5.2-3.2-.5-1.3-1.4-3-3.6-5.2-6.3-.2-.2-.3-.4-.4-.5.8 2.8 1.4 4.8 1.8 6.2.5 1.7-.5 2.7-1.6 3l-7.4 2.1c-.8.2-1.6.2-2.1-.3l-.2-.2a18.5 18.5 0 0 1-6.1 3.1c-3.1.8-6.3.8-9.2 0 0 .1.1.2.1.2.1.2.3 1.6-1.3 2.3-.4.2-1.3.5-4.4 1.4-2 .5-3.4.8-4.2 1-.5.1-.8.1-1.2 0-.6-.2-1-.5-1.3-.9l-.1-.1c-.4-.5-.9-1.3-1.7-2.3-.9-1.3-2.4-3.2-4.3-5.6h-.4c-.2.1-.4.2-.5.2-.2.1-.3.1-.5.2.3.9.7 2.2 1.3 3.8.8 2 1.3 3.5 1.5 4.6.3 1.1-.2 2-.8 2.4l-.2.2-.8.3c-.9.3-2.3.7-4.2 1.2-2.1.6-3.1.8-3.6.9-.7.2-1.5.5-2.9.8-3 .8-3.9 1-4.4 1-1.2.1-2.2-.5-2.8-1.6-.6-1.1-1-1.8-1.2-2.1-.7.2-2.1.5-4.9 1.3-1.6.5-2.4.7-2.9.8v1.4c.1 1.4-.1 3-1.3 3.8-.5.2-1.4.6-5.4 1.8-2 .5-5 1.4-5.6-.9-.2-.5-.2-.8 1.1-16.2.9-10.7 1.4-16.7 1.4-17.7.1-1.8.9-2.4 1.6-2.6.5-.2 1-.2 2-.4s1.5-.3 1.7-.4c.4-.1.9-.3 1.6-.5.8-.3 1.4-.5 1.9-.6.5-.2 1.6-.2 2.7 1.1 1.2 1.4 4.7 6.1 10.8 14.3l.1.1c-1.7-6.2-3.1-11-4.3-14.3l-.1-.3c-.1-.3-.5-1.8 1.4-2.7.2-.2.8-.4 6.9-2.2 2.7-.8 4.9-1.4 6.5-1.9 3.7-1 7-1 9.9.1 1.3.5 2.4 1.1 3.3 2 2.2-3.3 5.5-5.8 9.6-6.9 2.2-.6 4.4-.8 6.6-.5l.1-.5c-.2-.5-.2-1.1.2-1.6.5-.9 1.5-1.1 1.8-1.3.8-.2 2-.6 3.6-1.1 1.7-.5 2.9-.8 3.6-1.1 1.3-.4 2.2.8 2.7 1.3l9.6 11.7c.6-3.5 1.5-8.5 2.7-15.1.2-1.7 1.1-2.2 1.8-2.4.5-.2 1.1-.3 2-.5.8-.2 1.4-.3 1.9-.5.2-.1.7-.2 1.5-.5s1.4-.5 1.8-.6c1.4-.4 2.5.2 2.9 1.5.1.2.1.3.2.5 0 0 0 .1-.1.1l7.5 27.8c.1.1.2.1.2.2.2.6.3 1.1.5 1.6.1 1.1-.6 2.2-1.9 2.6zM29 113.8c-.1 1.2-.2 2.1-.2 2.6.4-.1.9-.2 1.5-.4-.3-.5-.6-1.2-1.3-2.2zM56.4 102c-.5-1.6-1.1-2-1.6-2.1-.5-.2-1.6-.2-3.6.4-.3.1-.5.2-.7.2.2.6.4 1.6.8 3.4.1.3.2.8.5 1.4 0 .1.1.2.1.2.6-.1 1.3-.2 2-.5 3.1-.8 2.8-2.2 2.5-3z"/><path fill="#2A4089" d="M122.6 101.3c.4 1.2.7 2.3.9 3.1.2.5 0 .8-.5.8l-7.8 2.1c-.5.2-.7-.1-.8-.6-.4-1.5-1-3.7-1.7-6.8s-1.3-5.3-1.7-6.8c-.2-.5-.2-.6-.4-.6-.2.2-.5 2.7-1.1 7.7-.4 2.9-.7 5.9-1.1 8.8-.1.4-.2.6-.4.8-.1 0-.4.2-.9.2-.8.2-1.3.2-1.5-.1-1.2-1.4-3-3.5-5.1-6.2-2.2-2.8-3.9-4.9-5-6.2-.1-.2-.1-.5-.2-.6-1.7-6.3-6.8-10.9-12.7-12.3-.1-.2-.2-.5-.2-.8l-.2-.4c-.1-.3.2-.5.8-.7.8-.2 2-.6 3.6-1.1 1.6-.5 2.8-.8 3.6-1.1.2-.1.5.2.9.8l10.3 12.4c.7.8 1.2 1.2 1.5 1.1.2-.1.4-.7.6-2 .6-3.5 1.6-8.8 2.8-15.8.1-.6.3-1 .6-1.1.5-.2 1.1-.3 2-.5.9-.2 1.5-.4 2-.5.4-.1.9-.3 1.7-.6.8-.3 1.3-.5 1.7-.6.5-.2.7 0 .8.4.2.5-.2 1.5.5 1.9.2.6 2 4.2 3 6.3 2.2 4.5 2.9 10 1.9 11.7 1.6 2.8 0 5.9 2.1 7.3zm-55.8 1.8c-.3 1.4-1.1 3-2.4 4.6a10954749909011610 10954749909011610 0 0 0 7.9 11.3c-.5.2-1.9.7-4.2 1.3-1.9.5-3.3.8-3.9.9-.3.1-.5.1-.6.1-.1 0-.2-.2-.5-.4-.4-.5-.9-1.3-1.7-2.3-1-1.3-2.5-3.3-4.5-5.8-.4-.5-1.1-.6-2-.5.1 0-.7.2-2.4.7-.2.1-.2.5 0 1.2.3 1 .8 2.5 1.5 4.4.8 2 1.2 3.4 1.5 4.4.1.2.1.4-.1.5-.2.1-.4.2-.6.2-.8.3-2.2.7-4 1.2-2.1.6-3.4.9-3.9.9s-.8-.2-.8-.5c-.5-1.6-1.1-4.1-1.7-7.4-.8-3.4-1.4-5.8-1.7-7.5-1.7-6.2-3.2-11.1-4.4-14.5l-.1-.3c-.1-.2.1-.5.5-.7.5-.2 2.7-.9 6.7-2.1 2.7-.8 4.9-1.4 6.4-1.9 3.3-.9 6.3-.9 8.8 0 2.9 1.1 4.7 3.2 5.6 6.4.8 2.5.9 4.3.6 5.8zm-11.6-4.9c-1.1-.3-2.6-.2-4.5.4-1.4.4-2 .8-2 1.2.1.5.4 2 1.1 4.3.1.3.2.8.5 1.5.2.7.3 1.1.5 1.4 0 .1.3.1.8 0 .9-.1 1.9-.3 2.9-.6 3.2-.9 4.5-2.6 3.8-5.2-.8-1.5-1.7-2.6-3.1-3zM44.7 126c.1.3.2.5.4.8-.2.1-.5.2-.8.2-2.1.6-3.5.9-4.1.9-.5 0-.9-.2-1.2-.8-1.1-2-1.7-3-2.1-3.1-.2-.1-2.3.5-6 1.4-2.5.7-3.8 1.1-3.9 1.3-.2.3-.2 1.1-.2 2.6.1 1.3-.1 2.1-.5 2.3-.5.2-2.1.8-5 1.5-2.3.6-3.4.7-3.6.3-.1-.4.3-5.6 1.1-15.5.9-10.8 1.4-16.7 1.4-17.8 0-.6.2-.9.4-1 .4-.1 1-.2 1.8-.4s1.5-.3 1.9-.4 1-.3 1.7-.5c.8-.2 1.4-.5 1.7-.5.3-.1.6.1 1 .5 1.1 1.4 4.7 6.1 10.6 14.2.9 1.3 1.8 2.4 2.6 3.6.2.8.4 1.8.6 2.8 1.1 3.4 1.7 6 2.2 7.6zm-14.5-13.2c-1.2-2-2.1-3.2-2.6-3.7-.2.8-.3 2.3-.4 4.6-.2 2.5-.2 4-.1 4.4.1.2.5.3 1.4.1.5-.1 1.2-.3 2.3-.6 1-.2 1.4-.5 1.5-.8 0-.1 0-.2-.1-.3 0-.4-.7-1.7-2-3.7zm67.1-8.3c.8 2.9 1.5 5 1.9 6.5.2.5 0 .8-.4.9l-7.4 2.1c-.2.1-.4.1-.5.1a17 17 0 0 0 5.2-13.4c.4.9.8 2.2 1.2 3.8z"/><path fill="#8D1A1C" d="M198.9 68.5c.5 1.6 1.1 4 2.1 7.2s1.7 5.6 2.2 7.2c.4 1.4-.3 2.6-1.6 2.9l-7.8 2.1c-1.3.4-2.5-.4-2.9-1.8-.4-1.4-.9-3.6-1.6-6.4-.3 2.8-.7 5.6-1 8.4-.2 1.1-.8 1.8-1.2 2l-.1.1c-.2.1-.3.2-1.1.4-1.4.4-2.5.2-3.2-.5-1.3-1.4-3-3.6-5.2-6.3-.2-.2-.3-.4-.4-.5.8 2.8 1.4 4.8 1.8 6.2.5 1.7-.5 2.7-1.6 3l-7.4 2.1c-.8.2-1.6.2-2.1-.3-.4-.3-.6-.8-.8-1.3v-.1c-2.1 2.1-4.8 3.7-7.9 4.5-4.6 1.3-9 .8-13-1.4-1.2 2.1-2.9 4-5.2 5.5a17.3 17.3 0 0 1-5.5 2.6c-2.6.7-5.2.8-7.8.1-1.1-.3-2.3-.7-3.3-1.1-14.9-8.5-11.8-23.1-7.7-28 1-1.2 2.2-2.3 3.6-3.3 4.3-3 8.8-4 13.1-3 .8.2 1.5.6 1.9 1.1.3.5.5 1 .8 4.3.2 3 .2 3.7.1 4.2-.2.5-.5 1.1-1 1.4l-.2.2-.3.1c-.4.1-.7.1-2-.1a6.86 6.86 0 0 0-5.3 1c-1.4 1-2.1 2.1-2.2 3.7-.1 1.5.4 3 1.4 4.6 1.1 1.6 2.3 2.6 3.8 3 1.5.5 2.9.2 4.2-.7.8-.6 1.5-1.3 2-2.2.4-.6.6-1.4.9-2.2.2-.5.2-.8.3-1.1-.2-.5-.3-1-.5-1.5-1.4-4.9-.8-9.5 1.4-13.7 2.3-4.3 5.9-7.2 10.8-8.5 3.3-.9 6.4-.9 9.3-.1 0-.2.1-.5.2-.8.5-.9 1.5-1.1 1.8-1.3.8-.2 2-.6 3.6-1.1 1.7-.5 2.9-.8 3.6-1.1 1.3-.4 2.2.8 2.7 1.3l9.6 11.7c.6-3.5 1.5-8.5 2.7-15.1.2-1.7 1.1-2.2 1.8-2.4.5-.2 1.1-.3 2-.5.8-.2 1.4-.3 1.9-.5.2-.1.7-.2 1.5-.5s1.4-.5 1.8-.6c1.4-.4 2.5.2 2.9 1.5.5 1.8 1.1 4.3 2 7.9 1 3.4 1.7 6 2.1 7.7zm-41.7 5.6a5.5 5.5 0 0 0-4.5-.7c-1.5.5-2.7 1.4-3.4 3-.8 1.6-.9 3.2-.5 4.9.5 1.8 1.4 3.1 2.7 4s2.8 1.1 4.6.6c1.5-.5 2.7-1.4 3.4-3 .8-1.5.9-3.1.5-4.8-.5-1.7-1.4-3-2.8-4z"/><path fill="#DB2D32" d="M197.2 68.9c.5 1.6 1.1 4 2.2 7.2 1 3.2 1.7 5.6 2.2 7.2.2.5 0 .8-.5.8l-7.8 2.1c-.5.2-.7-.1-.8-.6-.4-1.5-1-3.7-1.7-6.8s-1.3-5.3-1.7-6.8c-.2-.5-.2-.6-.4-.6-.2.2-.5 2.7-1.1 7.7-.4 2.9-.7 5.9-1.1 8.8-.1.4-.2.6-.4.8-.1 0-.4.2-.9.2-.8.2-1.3.2-1.5-.1-1.2-1.4-3-3.5-5.1-6.2-2.3-2.9-3.9-5-5.1-6.2l-.2-.2c-.1.2-.1.4 0 .7.4 1.4 1 3.6 1.9 6.5.8 2.9 1.5 5 1.9 6.5.2.5 0 .8-.4.9l-7.4 2.1c-.3.1-.5.1-.6 0-.1-.1-.2-.2-.2-.5-.1-.3-.2-.7-.3-1.1.6-.8 1.1-1.6 1.6-2.4 2.2-4.2 2.7-8.8 1.4-13.7-1.3-4.9-4-8.6-8.1-11.1-.8-.5-1.7-.9-2.5-1.3l-.2-.4c-.1-.3.2-.5.8-.7.8-.2 2-.6 3.6-1.1 1.6-.5 2.8-.8 3.6-1.1.2-.1.5.2.9.8l10.3 12.4c.7.8 1.2 1.2 1.5 1.1.2-.1.4-.7.6-2 .6-3.5 1.6-8.8 2.8-15.8.1-.6.3-1 .6-1.1.5-.2 1.1-.3 2-.5.9-.2 1.5-.4 2-.5.4-.1.9-.3 1.7-.6s1.3-.5 1.7-.6c.5-.2.7 0 .8.4.5 1.8 1.1 4.3 2 7.8.7 3.6 1.4 6.2 1.9 8zm-27.6 6.7c1.2 4.5.8 8.6-1.2 12.5-2 3.9-5.3 6.4-9.8 7.6-4.2 1.1-8.2.7-11.8-1.4.6-1.4 1-2.9 1.1-4.5.1-.6.1-1.4-.5-2.1-.3-.5-.5-.7-3.6-1.9-2.4-1-3.1-1.2-3.4-1.3-.5-.1-.9-.1-1.3 0-.1-.2-.1-.3-.2-.5-1.2-4.5-.8-8.6 1.2-12.5s5.3-6.5 9.7-7.7c4.4-1.2 8.5-.7 12.3 1.7 3.8 2.2 6.3 5.6 7.5 10.1zM158 72.8a6.64 6.64 0 0 0-5.8-.9c-2 .5-3.5 1.8-4.5 3.9-.9 2-1.1 4-.5 6 .6 2.2 1.7 3.9 3.4 5s3.7 1.4 5.9.8c2-.5 3.5-1.8 4.5-3.9.9-1.9 1.1-3.9.5-5.9-.6-2.2-1.8-3.9-3.5-5zm-18 13.3c.4.1 1.4.5 3.2 1.2 1.8.8 2.8 1.2 2.9 1.3.2.2.2.5.2 1.1-.5 4.3-2.5 7.6-6.2 10.2-3.8 2.6-7.8 3.4-12 2.4-4-.9-7.4-3.4-10-7.2a16.7 16.7 0 0 1-3.1-11.9c.5-4.3 2.6-7.8 6.2-10.3 3.9-2.7 7.9-3.7 11.8-2.7.5.1.7.2.8.5.2.2.3 1.4.5 3.5s.2 3.3.1 3.7c0 .2-.2.3-.3.4-.1.1-.5 0-1.4-.1-1.1-.2-2-.2-2.9-.1-1.3.2-2.5.6-3.5 1.3a6.52 6.52 0 0 0-3 5c-.2 1.9.5 3.8 1.7 5.7 1.3 1.9 2.8 3.1 4.7 3.7 2 .6 3.9.3 5.8-.9 1.1-.8 1.9-1.7 2.6-2.8.4-.8.8-1.6 1.1-2.6.2-.8.4-1.3.5-1.3-.1-.2 0-.2.3-.1z"/><path fill="#FCEE21" d="M74.7 86.3c-3.8 1.1-6.9 3.4-9 6.5 1 1.2 1.7 2.7 2.3 4.5.7 2.4.8 4.4.5 6.2-.3 1.6-1.1 3.2-2.4 5 .1.1.2.2.3.4.7.8 1.7 2 3.2 3.7 1.5 1.8 2.6 3 3.3 3.9a15.89 15.89 0 0 0 21.3-18.9C91.8 89 83.1 84 74.7 86.3z"/><path fill="#010101" d="M92.2 105.4c-.2.7-2.3 5.6-7 6.9-4.7 1.3-10.2-1.6-11.3-3-.1-.1-.2-.1-.2.2s.4 1.6.1 1.7c0 0-.5-.1-.6-.3-.2-.2-.8-1.6-.1-2.4.7-.8 1.7-.9 1.9-.7.2.2-.1.7-.5.8 0 .2-.1.2.2.4.3.2 5 4 10.5 2.4 5.5-1.7 7.1-6.7 7.1-6.7s.2 0-.1.7zm-9.1-10.8c-1.4-1.6-2-3.4-1.4-4.2.7-.7 2.4 0 3.8 1.6s2 3.4 1.4 4.2c-.6.6-2.3-.1-3.8-1.6zm3.2.5c-.2-.5-.6-.8-.8-.7-.3.1-.3.5-.2 1 .2.5.6.8.8.7.3-.1.3-.5.2-1zm-10.5 2.7c-1.1-2-1.3-4.1-.2-4.7 1.1-.6 2.8.5 4 2.5 1.1 2 1.3 4.1.2 4.7-1.1.6-2.9-.6-4-2.5zm3.6 1c-.2-.6-.7-1-1.1-.8-.3.1-.4.7-.2 1.3.2.6.7 1 1.1.8.4-.1.5-.7.2-1.3z"/></symbol>
  <symbol id="icon__design" viewBox="0 0 60 51.03"><path d="M60 11.56a7.46 7.46 0 0 1-2.38 5.88 5.58 5.58 0 0 1 .24 6.3v21.83a5.05 5.05 0 0 1-10.1 0V23a5.6 5.6 0 0 1 .65-5.59 7.52 7.52 0 0 1-2.4-5.2c-.12-2.71 1.51-5.5 2.91-7.37A16.67 16.67 0 0 1 53.71.31a1.73 1.73 0 0 1 1.98.05 1.6 1.6 0 0 1 .4 1.84c-.69 2.32.05 3.03 1.26 4.2a7.07 7.07 0 0 1 2.64 5.16zm-9.9 34a2.71 2.71 0 0 0 5.42 0V25.83a5.72 5.72 0 0 1-1.2.42l-.06.01a5.57 5.57 0 0 1-.38.07 1.19 1.19 0 0 1-.17.02h-1.4a1.19 1.19 0 0 1-.18-.02 5.77 5.77 0 0 1-2.03-.7v19.95zm1.83-21.66l.06.02.08.03.1.02.07.02.16.03h1.21l.16-.03h.03l.12-.04.04-.01.1-.03.06-.02.1-.03.05-.03.08-.03.08-.03.05-.03.1-.05h.01a3.35 3.35 0 0 0 1.79-2.94 3.3 3.3 0 0 0-1.3-2.61l-.1-.08-.16-.1-.08-.06a3.35 3.35 0 0 0-.41-.2l-.04-.02a3.46 3.46 0 0 0-.25-.1l-.07-.01a5.34 5.34 0 0 0-.18-.05l-.14-.03-.1-.02a3.2 3.2 0 0 0-.23-.03H52.7l-.22.03-.1.02a3.11 3.11 0 0 0-.32.07l-.08.03-.26.09-.02.01-.15.06-.02.02a3.04 3.04 0 0 0-.48.28l-.1.07a3.3 3.3 0 0 0-1.31 2.63 3.35 3.35 0 0 0 2.3 3.15zM55.7 8.05c-1.08-1.05-2.39-2.31-2.2-4.78a18.52 18.52 0 0 0-2.45 2.6c-1.8 2.3-2.78 4.57-2.7 6.23a5.21 5.21 0 0 0 1.82 3.76l.06-.03.21-.11.07-.04.31-.14h.03c.1-.05.2-.09.31-.12l.03-.01a5.68 5.68 0 0 1 1.04-.24h.07l.27-.04h.09a5.62 5.62 0 0 1 .69 0h.08l.29.03.06.01a5.7 5.7 0 0 1 .71.14l.34.1.03.01a5.81 5.81 0 0 1 .65.27l.1.05.19.1.07.04a5.15 5.15 0 0 0 1.78-4.21 4.87 4.87 0 0 0-1.95-3.62zM36.31 51h-5a4.36 4.36 0 0 1-4.38-4.32V9a1.14 1.14 0 0 1 .22-.67L32.87.5a1.18 1.18 0 0 1 1.9 0l5.71 7.83a1.14 1.14 0 0 1 .22.67V46.7A4.36 4.36 0 0 1 36.31 51zm-7.04-10.73h1.18V18.2a1.17 1.17 0 0 1 2.35 0v22.07h2.04V10.35h-5.57v29.93zm4.55-37.11l-3.56 4.87h7.12zm4.54 7.18h-1.18v29.93h1.18V10.35zm0 32.24h-9.09v4.1a2.03 2.03 0 0 0 2.04 2.01h5a2.03 2.03 0 0 0 2.04-2.01v-4.1zM32.7 14a1.1 1.1 0 0 1-.1.2 1.11 1.11 0 0 1-.15.18 1.17 1.17 0 0 1-.18.14 1.26 1.26 0 0 1-.2.1 1.18 1.18 0 0 1-1.28-.24 1.16 1.16 0 0 1-.34-.82 1.1 1.1 0 0 1 .02-.23 1.25 1.25 0 0 1 .07-.21 1.22 1.22 0 0 1 .1-.2 1.2 1.2 0 0 1 .15-.18 1.16 1.16 0 0 1 .38-.25 1.32 1.32 0 0 1 .22-.07 1.16 1.16 0 0 1 .68.07 1.15 1.15 0 0 1 .38.25 1.07 1.07 0 0 1 .15.18 1.15 1.15 0 0 1 .1.2 1.34 1.34 0 0 1 .07.21 1.17 1.17 0 0 1 .02.23 1.14 1.14 0 0 1-.02.23 1.23 1.23 0 0 1-.07.21zM8.69 12.2h7.97a3.75 3.75 0 1 1 .03 7.5l-3.57.14h-.05a1.67 1.67 0 0 0-1.67 1.66v.17a10.15 10.15 0 0 1 9.06 10.02v9.26a10.23 10.23 0 0 1-20.46 0v-9.26a10.15 10.15 0 0 1 9.05-10.02v-.17a4 4 0 0 1 4-3.97l3.57-.15h.05a1.44 1.44 0 1 0 0-2.87H8.69a3.78 3.78 0 0 1-3.8-3.75A3.68 3.68 0 0 1 6.02 8.1 3.76 3.76 0 0 1 8.7 7.03h6.97a2.34 2.34 0 1 0 0-4.68H7.73a1.16 1.16 0 1 1 0-2.31h7.94a4.65 4.65 0 1 1 0 9.3H8.65a1.42 1.42 0 0 0-1.42 1.42 1.45 1.45 0 0 0 1.46 1.43zm9.42 19.49A7.82 7.82 0 0 0 11.4 24v9.42h6.71v-1.74zM9.06 24a7.82 7.82 0 0 0-6.72 7.69v1.73h6.72V24zM2.34 35.73v5.22a7.89 7.89 0 0 0 15.77 0v-5.22H2.34zM4.3 1.63a1.12 1.12 0 0 1-.1.2 1.07 1.07 0 0 1-.15.18 1.17 1.17 0 0 1-1.06.32 1.32 1.32 0 0 1-.22-.07 1.17 1.17 0 0 1-.2-.1A1.08 1.08 0 0 1 2.39 2a1.07 1.07 0 0 1-.15-.18 1.12 1.12 0 0 1-.1-.2 1.2 1.2 0 0 1-.07-.21 1.17 1.17 0 0 1 0-.45 1.2 1.2 0 0 1 .07-.22 1.12 1.12 0 0 1 .1-.2A1.17 1.17 0 0 1 2.4.37a1.18 1.18 0 0 1 1.66 0 1.16 1.16 0 0 1 .32.6 1.08 1.08 0 0 1 0 .45 1.12 1.12 0 0 1-.07.21z"/></symbol>
  <symbol id="icon__effect" viewBox="0 0 56 60"><path d="M7.78 46.27a1.19 1.19 0 0 1-.07 1.66H7.7a1.14 1.14 0 0 1-1.63-.07 1.18 1.18 0 0 1 .07-1.65l.01-.01a1.14 1.14 0 0 1 1.63.07zm45.47 3.99l-4.22 2.08a1.14 1.14 0 0 1-1.54-.54 1.18 1.18 0 0 1 .53-1.56l4.22-2.09a2.62 2.62 0 0 0 1.25-3.36 2.56 2.56 0 0 0-1.45-1.41 2.51 2.51 0 0 0-2 .07l-16.77 8a1.13 1.13 0 0 1-.49.12h-.31a4.17 4.17 0 0 1-2.7 2.29 4.16 4.16 0 0 1-3.37-.52l-5.2-3.38a1.18 1.18 0 0 1-.36-1.62 1.15 1.15 0 0 1 1.6-.36l5.2 3.38a1.92 1.92 0 0 0 2.07-3.22l-7.44-5.01H11.89V56.3l4.36 1.36h12.57a17.96 17.96 0 0 0 7.9-1.85l3.32-1.63a1.15 1.15 0 0 1 1.54.54 1.18 1.18 0 0 1-.53 1.56l-3.32 1.64A20.27 20.27 0 0 1 28.82 60H16.08a1.14 1.14 0 0 1-.34-.05l-3.85-1.2v.08A1.16 1.16 0 0 1 10.73 60H1.16a1.17 1.17 0 0 1 0-2.34h8.42V40.78H1.16a1.17 1.17 0 0 1 0-2.34h9.57a1.16 1.16 0 0 1 1.16 1.17v1.17H22.6a1.14 1.14 0 0 1 .64.2l7.74 5.2a4.23 4.23 0 0 1 1.83 2.9l16.23-7.75a4.77 4.77 0 0 1 3.82-.14 4.86 4.86 0 0 1 2.74 2.69 4.98 4.98 0 0 1-2.36 6.38zM45 35.77l-7.25-1.55-4.57 5.92a1.15 1.15 0 0 1-.91.45 1.25 1.25 0 0 1-.18-.02 1.16 1.16 0 0 1-.9-.75l-3.3-9.2-4.06 8.82a1.16 1.16 0 0 1-.96.68h-.08a1.15 1.15 0 0 1-.97-.53l-4.04-6.3-7.36.9a1.15 1.15 0 0 1-1.08-.47 1.19 1.19 0 0 1-.1-1.19l5.82-12.58a14.44 14.44 0 0 1-1.01-3.67 14.6 14.6 0 0 1 1.54-8.76 1.15 1.15 0 0 1 1.57-.48 1.18 1.18 0 0 1 .47 1.6 12.16 12.16 0 0 0 2.04 14.11 11.66 11.66 0 0 0 16.66 0 12.1 12.1 0 0 0 0-16.9 11.72 11.72 0 0 0-13.91-2.08 1.15 1.15 0 0 1-1.57-.47 1.18 1.18 0 0 1 .47-1.59A13.93 13.93 0 0 1 37.96 4.2a14.48 14.48 0 0 1 3.19 15.24 1.2 1.2 0 0 1 .06.14l5.12 14.67a1.19 1.19 0 0 1-.22 1.16 1.14 1.14 0 0 1-1.11.37zM18.04 24.41a14.45 14.45 0 0 1-1.6-1.94l-4.23 9.14 6-.74a1.15 1.15 0 0 1 1.1.52l3.3 5.15 3.7-8.05a13.9 13.9 0 0 1-8.27-4.08zm21.66-2.15a14.3 14.3 0 0 1-1.74 2.14 13.9 13.9 0 0 1-8.38 4.1l3.06 8.53 3.73-4.83a1.15 1.15 0 0 1 1.15-.43l5.94 1.27zM21.58 11.7l3.72-.55 1.66-3.42A1.15 1.15 0 0 1 28 7.09a1.15 1.15 0 0 1 1.03.65l1.67 3.42 3.72.55a1.16 1.16 0 0 1 .93.8 1.19 1.19 0 0 1-.3 1.2l-2.68 2.66.63 3.76a1.18 1.18 0 0 1-.46 1.15 1.14 1.14 0 0 1-1.21.09L28 19.59l-3.33 1.78a1.14 1.14 0 0 1-1.21-.09 1.18 1.18 0 0 1-.46-1.14l.63-3.77-2.7-2.66a1.19 1.19 0 0 1-.28-1.2 1.16 1.16 0 0 1 .93-.8zm4.1 3.41a1.19 1.19 0 0 1 .33 1.04l-.34 2.03 1.8-.96a1.14 1.14 0 0 1 1.07 0l1.8.96-.34-2.03a1.19 1.19 0 0 1 .33-1.04l1.45-1.43-2-.3a1.15 1.15 0 0 1-.88-.64L28 10.9l-.9 1.85a1.15 1.15 0 0 1-.87.64l-2 .3zM18.86 6.2a1.15 1.15 0 0 1-.82-.34v-.01a1.18 1.18 0 0 1 0-1.66 1.14 1.14 0 0 1 1.62 0h.01a1.19 1.19 0 0 1 0 1.67 1.15 1.15 0 0 1-.81.34zm25.77 45.85a1.16 1.16 0 0 1 .82.34 1.18 1.18 0 0 1 0 1.66 1.14 1.14 0 0 1-1.64 0 1.18 1.18 0 0 1 0-1.66 1.16 1.16 0 0 1 .82-.34z"/></symbol>
  <symbol id="icon__quality" viewBox="0 0 49 60"><path fill-rule="evenodd" d="M49 32.4v.09a.14.14 0 0 1 0 .03v.05l-.01.04v.03l-.02.04v.04l-.02.03-.01.04-.02.03a.34.34 0 0 1 0 .04l-.03.03-.01.04-.02.03-.02.03-.02.04-.02.03-.02.02-.03.04-.02.03-.01.01-23.2 26.44-.1.1-.11.09-.04.02a1.1 1.1 0 0 1-.1.06l-.03.02a1.04 1.04 0 0 1-.14.05l-.04.01a1.1 1.1 0 0 1-.11.03h-.05a1.14 1.14 0 0 1-.15.02 1.3 1.3 0 0 1-.16-.01l-.04-.01a.98.98 0 0 1-.12-.03h-.03a1.19 1.19 0 0 1-.14-.06l-.03-.02a1.08 1.08 0 0 1-.1-.06l-.04-.02a1.19 1.19 0 0 1-.1-.08l-.02-.01a.99.99 0 0 1-.1-.1L.3 33.18l-.01-.02-.03-.03-.03-.03-.02-.03-.02-.03-.02-.04a.33.33 0 0 1-.02-.03.37.37 0 0 1-.02-.03l-.01-.03-.02-.04a.29.29 0 0 1-.01-.04l-.02-.03v-.04c0-.02-.02-.02-.02-.03v-.04l-.02-.04v-.03l-.01-.04v-.04-.03-.04-.05-.03-.04a.37.37 0 0 1 0-.05v-.03-.03-.08l.01-.03.01-.05.01-.04a.2.2 0 0 1 .01-.02.47.47 0 0 1 .02-.05l.02-.04v-.01a.46.46 0 0 1 .03-.05l.02-.04a.04.04 0 0 0 0-.01l.01-.02 6.99-12.42v-.02l.07-.1.02-.02a1.36 1.36 0 0 1 .1-.1v-.02a1.05 1.05 0 0 1 .1-.08l.02-.02.1-.06.02-.02a1.06 1.06 0 0 1 .12-.06h.02a1.16 1.16 0 0 1 .12-.05h.04c.03-.02.07-.02.1-.03h.04a1.16 1.16 0 0 1 .14 0h32.67a1.11 1.11 0 0 1 .14 0h.04a1.3 1.3 0 0 1 .14.03 1.37 1.37 0 0 1 .14.05 1.18 1.18 0 0 1 .12.06.31.31 0 0 1 .03.02l.09.06a.28.28 0 0 1 .03.02 1.27 1.27 0 0 1 .1.1 1.42 1.42 0 0 1 .1.1v.02a1 1 0 0 1 .07.1l.01.02 7 12.44.01.04.05.05v.02l.02.04.02.04.01.03.01.04.01.04.01.03v.24c0 .02 0 0 0 0l.02.03zm-3.75 1.16h-8.81L28.46 52.7zM20.79 52.72l-8.12-19.16h-8.9zM8.02 22.6l-4.85 8.62h8.5zm1.91-1.47l3.86 9.1 8.1-9.1H9.93zm6.1 10.1h3.8a1.17 1.17 0 0 1 0 2.34h-4.62l9.43 22.25 9.27-22.25h-4.74a1.17 1.17 0 0 1 0-2.35h3.9l-8.57-9.5zm11.1-10.1l8.18 9.08 3.78-9.08H27.13zM41 22.62l-3.58 8.6h8.42zM24.5 33.55a1.17 1.17 0 1 1 1.17-1.17 1.17 1.17 0 0 1-1.17 1.17zm13.42-27.6a1.18 1.18 0 0 1-.43-1.6 1.16 1.16 0 0 1 1.6-.43 1.18 1.18 0 0 1 .42 1.6 1.16 1.16 0 0 1-1.6.43zm-3.08 7.7a1.16 1.16 0 0 1-1.59.43 1.18 1.18 0 0 1-.43-1.6l2.34-4.06A1.16 1.16 0 0 1 36.75 8a1.18 1.18 0 0 1 .43 1.6zM24.5 11.74a1.17 1.17 0 0 1-1.17-1.18v-4.7a1.17 1.17 0 1 1 2.34 0v4.7a1.17 1.17 0 0 1-1.17 1.18zm0-9.4a1.17 1.17 0 1 1 1.17-1.17 1.17 1.17 0 0 1-1.17 1.18zM15.75 14.1a1.16 1.16 0 0 1-1.6-.43L11.83 9.6a1.18 1.18 0 0 1 .43-1.6 1.16 1.16 0 0 1 1.6.43l2.33 4.06a1.18 1.18 0 0 1-.43 1.6zm-4.67-8.13a1.16 1.16 0 0 1-1.59-.43 1.18 1.18 0 0 1 .43-1.6 1.16 1.16 0 0 1 1.6.43 1.18 1.18 0 0 1-.44 1.6z"/></symbol>
  <symbol id="angle__left" viewBox="0 0 256 512"><path d="M31.7 239l136-136a23.9 23.9 0 0 1 33.9 0l22.6 22.6a23.9 23.9 0 0 1 0 33.9L127.9 256l96.4 96.4a23.9 23.9 0 0 1 0 33.9L201.7 409a23.9 23.9 0 0 1-33.9 0l-136-136c-9.5-9.4-9.5-24.6-.1-34z"/></symbol>
  <symbol id="angle__right" viewBox="0 0 256 512"><path d="M224.3 273l-136 136a23.9 23.9 0 0 1-33.9 0l-22.6-22.6a23.9 23.9 0 0 1 0-33.9l96.4-96.4-96.4-96.4a23.9 23.9 0 0 1 0-33.9L54.3 103a23.9 23.9 0 0 1 33.9 0l136 136c9.5 9.4 9.5 24.6.1 34z"/></symbol>
  <symbol id="icon__phone" viewBox="0 0 512 512"><path d="M493.4 24.6l-104-24a24.16 24.16 0 0 0-27.5 13.9l-48 112c-4.2 9.8-1.4 21.3 6.9 28l60.6 49.6c-36 76.7-98.9 140.5-177.2 177.2l-49.6-60.6a23.97 23.97 0 0 0-28-6.9l-112 48a24.29 24.29 0 0 0-14 27.6l24 104A24 24 0 0 0 48 512c256.1 0 464-207.5 464-464 0-11.2-7.7-20.9-18.6-23.4z"/></symbol>
  <symbol id="icon__envelope" viewBox="0 0 512 512"><path d="M502.3 190.8c3.9-3.1 9.7-.2 9.7 4.7V400c0 26.5-21.5 48-48 48H48c-26.5 0-48-21.5-48-48V195.6c0-5 5.7-7.8 9.7-4.7 22.4 17.4 52.1 39.5 154.1 113.6 21.1 15.4 56.7 47.8 92.2 47.6 35.7.3 72-32.8 92.3-47.6 102-74.1 131.6-96.3 154-113.7zM256 320c23.2.4 56.6-29.2 73.4-41.4 132.7-96.3 142.8-104.7 173.4-128.7 5.8-4.5 9.2-11.5 9.2-18.9v-19c0-26.5-21.5-48-48-48H48C21.5 64 0 85.5 0 112v19c0 7.4 3.4 14.3 9.2 18.9 30.6 23.9 40.7 32.4 173.4 128.7 16.8 12.2 50.2 41.8 73.4 41.4z"/></symbol>
  <symbol id="icon__user" viewBox="0 0 496 512"><path d="M248 8C111 8 0 119 0 256s111 248 248 248 248-111 248-248S385 8 248 8zm0 96a88 88 0 1 1 0 176 88 88 0 0 1 0-176zm0 344c-58.7 0-111.3-26.6-146.5-68.2 18.8-35.4 55.6-59.8 98.5-59.8 2.4 0 4.8.4 7.1 1.1 13 4.2 26.6 6.9 40.9 6.9 14.3 0 28-2.7 40.9-6.9 2.3-.7 4.7-1.1 7.1-1.1 42.9 0 79.7 24.4 98.5 59.8C359.3 421.4 306.7 448 248 448z"/></symbol>
</svg>